<svg width="70" height="70" viewBox="0 0 70 70" fill="none" xmlns="http://www.w3.org/2000/svg">
<path d="M62.4325 53.8651H35.946C31.7725 53.8651 28.3784 57.2591 28.3784 61.4326C28.3784 65.6061 31.7725 69.0002 35.946 69.0002H62.4325C66.606 69.0002 70 65.6061 70 61.4326C70 57.2591 66.606 53.8651 62.4325 53.8651ZM62.4325 27.3786H35.946C31.7725 27.3786 28.3784 30.7726 28.3784 34.9461C28.3784 39.1197 31.7725 42.5137 35.946 42.5137H62.4325C66.606 42.5137 70 39.1197 70 34.9461C70 30.7726 66.606 27.3786 62.4325 27.3786ZM62.4325 0.89209H35.946C31.7725 0.89209 28.3784 4.28614 28.3784 8.45966C28.3784 12.6332 31.7725 16.0272 35.946 16.0272H62.4325C66.606 16.0272 70 12.6332 70 8.45966C70 4.28614 66.606 0.89209 62.4325 0.89209Z" fill="white" fill-opacity="0.28"/>
<path d="M9.45946 70.8921C14.6838 70.8921 18.9189 66.6569 18.9189 61.4326C18.9189 56.2083 14.6838 51.9731 9.45946 51.9731C4.23514 51.9731 0 56.2083 0 61.4326C0 66.6569 4.23514 70.8921 9.45946 70.8921Z" fill="white" fill-opacity="0.28"/>
<path d="M9.45946 44.4052C14.6838 44.4052 18.9189 40.1701 18.9189 34.9458C18.9189 29.7215 14.6838 25.4863 9.45946 25.4863C4.23514 25.4863 0 29.7215 0 34.9458C0 40.1701 4.23514 44.4052 9.45946 44.4052Z" fill="white" fill-opacity="0.28"/>
<path d="M9.45946 17.9189C14.6838 17.9189 18.9189 13.6838 18.9189 8.45946C18.9189 3.23514 14.6838 -1 9.45946 -1C4.23514 -1 0 3.23514 0 8.45946C0 13.6838 4.23514 17.9189 9.45946 17.9189Z" fill="white" fill-opacity="0.28"/>
</svg>
