<svg width="70" height="70" viewBox="0 0 70 70" fill="none" xmlns="http://www.w3.org/2000/svg">
<path d="M3.88889 31.1111H27.2222C28.2536 31.1111 29.2428 30.7014 29.9721 29.9721C30.7014 29.2428 31.1111 28.2536 31.1111 27.2222V3.88889C31.1111 2.85749 30.7014 1.86834 29.9721 1.13903C29.2428 0.409721 28.2536 0 27.2222 0H3.88889C2.85749 0 1.86834 0.409721 1.13903 1.13903C0.409721 1.86834 0 2.85749 0 3.88889V27.2222C0 28.2536 0.409721 29.2428 1.13903 29.9721C1.86834 30.7014 2.85749 31.1111 3.88889 31.1111ZM42.7778 31.1111H66.1111C67.1425 31.1111 68.1317 30.7014 68.861 29.9721C69.5903 29.2428 70 28.2536 70 27.2222V3.88889C70 2.85749 69.5903 1.86834 68.861 1.13903C68.1317 0.409721 67.1425 0 66.1111 0H42.7778C41.7464 0 40.7572 0.409721 40.0279 1.13903C39.2986 1.86834 38.8889 2.85749 38.8889 3.88889V27.2222C38.8889 28.2536 39.2986 29.2428 40.0279 29.9721C40.7572 30.7014 41.7464 31.1111 42.7778 31.1111ZM3.88889 70H27.2222C28.2536 70 29.2428 69.5903 29.9721 68.861C30.7014 68.1317 31.1111 67.1425 31.1111 66.1111V42.7778C31.1111 41.7464 30.7014 40.7572 29.9721 40.0279C29.2428 39.2986 28.2536 38.8889 27.2222 38.8889H3.88889C2.85749 38.8889 1.86834 39.2986 1.13903 40.0279C0.409721 40.7572 0 41.7464 0 42.7778V66.1111C0 67.1425 0.409721 68.1317 1.13903 68.861C1.86834 69.5903 2.85749 70 3.88889 70ZM54.4444 70C63.0233 70 70 63.0233 70 54.4444C70 45.8656 63.0233 38.8889 54.4444 38.8889C45.8656 38.8889 38.8889 45.8656 38.8889 54.4444C38.8889 63.0233 45.8656 70 54.4444 70Z" fill="white" fill-opacity="0.28"/>
</svg>
