<svg width="70" height="70" viewBox="0 0 70 70" fill="none" xmlns="http://www.w3.org/2000/svg">
<g clip-path="url(#clip0_1535_308)">
<path fill-rule="evenodd" clip-rule="evenodd" d="M35 70C39.5963 70 44.1475 69.0947 48.3939 67.3358C52.6403 65.5769 56.4987 62.9988 59.7487 59.7487C62.9988 56.4987 65.5769 52.6403 67.3358 48.3939C69.0947 44.1475 70 39.5963 70 35C70 30.4037 69.0947 25.8525 67.3358 21.6061C65.5769 17.3597 62.9988 13.5013 59.7487 10.2513C56.4987 7.00121 52.6403 4.42313 48.3939 2.66422C44.1475 0.905301 39.5963 -6.84897e-08 35 0C25.7174 1.38321e-07 16.815 3.68749 10.2513 10.2513C3.68749 16.815 0 25.7174 0 35C0 44.2826 3.68749 53.185 10.2513 59.7487C16.815 66.3125 25.7174 70 35 70ZM30.2672 19.4056L52.2161 31.6011C52.8221 31.938 53.3269 32.4308 53.6784 33.0284C54.0299 33.626 54.2153 34.3067 54.2153 35C54.2153 35.6933 54.0299 36.374 53.6784 36.9716C53.3269 37.5692 52.8221 38.062 52.2161 38.3989L30.2672 50.5944C29.5565 50.9895 28.7549 51.192 27.9419 51.1818C27.1289 51.1717 26.3326 50.9493 25.6319 50.5367C24.9313 50.1241 24.3506 49.5356 23.9474 48.8295C23.5443 48.1234 23.3326 47.3242 23.3333 46.5111V23.4889C23.3326 22.6758 23.5443 21.8766 23.9474 21.1705C24.3506 20.4644 24.9313 19.8759 25.6319 19.4633C26.3326 19.0507 27.1289 18.8283 27.9419 18.8182C28.7549 18.808 29.5565 19.0105 30.2672 19.4056Z" fill="white" fill-opacity="0.28"/>
</g>
<defs>
<clipPath id="clip0_1535_308">
<rect width="70" height="70" fill="white"/>
</clipPath>
</defs>
</svg>
