<svg width="70" height="70" viewBox="0 0 70 70" fill="none" xmlns="http://www.w3.org/2000/svg">
<path d="M56 56C52.115 56 49 59.115 49 63C49 64.8565 49.7375 66.637 51.0503 67.9497C52.363 69.2625 54.1435 70 56 70C57.8565 70 59.637 69.2625 60.9497 67.9497C62.2625 66.637 63 64.8565 63 63C63 61.1435 62.2625 59.363 60.9497 58.0503C59.637 56.7375 57.8565 56 56 56ZM0 0V7H7L19.6 33.565L14.84 42.14C14.315 43.12 14 44.275 14 45.5C14 47.3565 14.7375 49.137 16.0503 50.4497C17.363 51.7625 19.1435 52.5 21 52.5H63V45.5H22.47C22.2379 45.5 22.0154 45.4078 21.8513 45.2437C21.6872 45.0796 21.595 44.8571 21.595 44.625C21.595 44.45 21.63 44.31 21.7 44.205L24.85 38.5H50.925C53.55 38.5 55.86 37.03 57.05 34.895L69.58 12.25C69.825 11.69 70 11.095 70 10.5C70 9.57174 69.6313 8.6815 68.9749 8.02513C68.3185 7.36875 67.4283 7 66.5 7H14.735L11.445 0M21 56C17.115 56 14 59.115 14 63C14 64.8565 14.7375 66.637 16.0503 67.9497C17.363 69.2625 19.1435 70 21 70C22.8565 70 24.637 69.2625 25.9497 67.9497C27.2625 66.637 28 64.8565 28 63C28 61.1435 27.2625 59.363 25.9497 58.0503C24.637 56.7375 22.8565 56 21 56Z" fill="white" fill-opacity="0.28"/>
</svg>
