<svg width="70" height="70" viewBox="0 0 70 70" fill="none" xmlns="http://www.w3.org/2000/svg">
<path d="M58.125 10C59.1605 10 60 9.16047 60 8.125V1.875C60 0.839531 59.1605 0 58.125 0H11.875C10.8395 0 10 0.839531 10 1.875V8.86687C10 9.90234 10.8395 10.7419 11.875 10.7419H25.2C29.4669 10.7419 32.7408 12.2978 34.7266 15H11.875C10.8395 15 10 15.8395 10 16.875V23.125C10 24.1605 10.8395 25 11.875 25H36.6808C35.7094 30.6384 31.5306 34.1613 25 34.1613H11.875C10.8395 34.1613 10 35.0008 10 36.0362V44.3194C10 44.8427 10.2188 45.3422 10.6033 45.6972L36.3927 69.5028C36.739 69.8225 37.193 70 37.6644 70H50.5647C52.2716 70 53.0906 67.905 51.8364 66.7472L28.2611 44.9853C40.2141 44.6197 48.7523 36.6423 49.8733 25H58.125C59.1605 25 60 24.1605 60 23.125V16.875C60 15.8395 59.1605 15 58.125 15H48.9547C48.41 13.1967 47.6609 11.5241 46.7278 10H58.125Z" fill="white" fill-opacity="0.28"/>
</svg>
