<svg width="70" height="70" viewBox="0 0 70 70" fill="none" xmlns="http://www.w3.org/2000/svg">
<g clip-path="url(#clip0_1535_265)">
<path d="M56 21H28V14H56V21ZM70 7V35L49 56H21C19.1435 56 17.363 55.2625 16.0503 53.9497C14.7375 52.637 14 50.8565 14 49V7C14 5.14348 14.7375 3.36301 16.0503 2.05025C17.363 0.737498 19.1435 0 21 0H63C64.8565 0 66.637 0.737498 67.9497 2.05025C69.2625 3.36301 70 5.14348 70 7ZM63 7H21V49H42V35C42 33.1435 42.7375 31.363 44.0503 30.0503C45.363 28.7375 47.1435 28 49 28H63V7ZM7 14C5.14348 14 3.36301 14.7375 2.05025 16.0503C0.737498 17.363 0 19.1435 0 21V63C0 66.85 3.15 70 7 70H49C50.8565 70 52.637 69.2625 53.9497 67.9497C55.2625 66.637 56 64.8565 56 63H7V14Z" fill="white" fill-opacity="0.28"/>
</g>
<defs>
<clipPath id="clip0_1535_265">
<rect width="70" height="70" fill="white"/>
</clipPath>
</defs>
</svg>
